<svg width="104" height="65" viewBox="0 0 104 65" fill="none" xmlns="http://www.w3.org/2000/svg">
    <path d="M11.4706 28.1081L17.5882 38.6486L14.5294 31.7973L22.1765 48.1351M22.1765 48.1351L23.7059 41.2838L27.5294 46.554L29.0588 43.3919L32.1177 47.0811L35.1765 45.5L39 49.1892L44.3529 46.027L45.8824 49.7162L51.2353 45.5L52.7647 46.554L53.5294 49.1892L58.8824 46.554L59.6471 49.7162L65 46.554L65.7647 48.1351L70.3529 46.027L73.4118 43.9189L78 40.2297L83.3529 38.1216L84.8824 35.4865L84.1176 37.5946L87.9412 33.9054L84.8824 37.5946L87.9412 36.4195L84.8824 39.7027L82.5882 40.7567L80.2941 43.3919L79.5294 42.3378L78.7647 44.973L76.4706 45.5L74.9412 47.6081L71.8824 51.2973L68.8235 51.8243L63.4706 56.0405L61.9412 53.4054L58.1176 58.1486L57.3529 52.8784L52 58.1486L49.7059 53.4054L46.6471 60.7838L41.2941 51.8243L42.0588 58.6757L36.7059 51.8243L37.4706 57.0946L29.8235 49.1892L30.0705 53.4054L31.3529 57.0946L24.4706 50.7703L22.1765 48.1351ZM22.1765 48.1351L19.8824 45.5L16.0588 40.2297L15.2941 41.8108L11.4706 32.8513L16.0588 37.5946L10.7059 29.1621M22.1765 48.1351H23.7059L28.2941 52.3513V47.6081" stroke="black"/>
    <path d="M76.7911 43.2341C76.4433 43.2608 75.8186 43.6793 75.6558 43.8588C75.401 44.1399 75.1406 44.3521 74.7311 44.5403" stroke="white" stroke-width="0.5" stroke-linecap="round"/>
    <path d="M76.7912 43.3477C76.2831 43.3477 75.8701 43.8622 75.5552 44.0576C75.3162 44.2058 75.1055 44.3452 74.8548 44.4835C74.8507 44.4857 75.4139 44.1419 75.5964 44.086C75.8349 44.0129 76.0328 43.7641 76.2144 43.6317C76.3039 43.5663 76.5416 43.3643 76.4249 43.4045C76.2007 43.4818 76.0701 43.6481 75.8665 43.7452C75.617 43.8642 75.1828 44.0944 75.1432 44.3131C75.1272 44.401 74.724 44.6847 74.6488 44.7107" stroke="black" stroke-width="0.5" stroke-linecap="round"/>
    <path d="M73.9896 47.0958C73.6631 47.2017 73.3255 47.2912 72.9824 47.3672C72.5677 47.459 72.4746 47.5992 72.2134 47.812C72.0328 47.9591 71.8873 48.1196 71.6503 48.2285C71.5566 48.2715 71.6238 48.3687 71.5542 48.4304C71.361 48.6016 71.159 48.7538 70.9408 48.9131C70.4281 49.2872 69.9499 49.7384 69.5033 50.134C69.3252 50.2919 69.1675 50.4191 68.9632 50.56C68.789 50.68 68.6481 50.9467 68.4276 51.0143C68.0365 51.134 67.8153 51.4936 67.4617 51.6831C67.409 51.7114 67.4736 50.8092 67.48 50.7303C67.4877 50.634 67.5229 50.3657 67.5807 50.276C67.6546 50.1613 67.5664 49.8308 67.686 49.7649C67.8411 49.6794 67.7989 49.4926 67.8096 49.3674C67.8247 49.1901 67.9083 49.1897 67.599 49.2507C67.2469 49.32 66.8439 49.383 66.5553 49.5819C66.5089 49.6139 66.2974 49.7965 66.244 49.7965C66.1713 49.7965 66.0792 49.4409 66.0792 49.3958C66.0792 49.2577 65.9866 49.0816 65.9144 48.9446C65.8698 48.8601 65.832 48.8133 65.832 48.7206C65.832 48.5808 65.8262 49.0004 65.832 49.1402C65.8426 49.3959 65.9968 49.6712 65.9968 49.2286C65.9968 48.9031 65.955 48.9056 65.8503 49.2664C65.8024 49.4314 65.8384 49.5884 65.7679 49.7523C65.6777 49.9621 65.7472 49.6011 65.7313 49.5188C65.679 49.2489 65.5848 48.9941 65.5848 48.7206C65.5848 48.5618 65.5848 49.0382 65.5848 49.197C65.5848 49.4111 65.7097 48.767 65.745 48.6575C65.8305 48.3923 65.7506 48.9844 65.7908 49.1118C65.8372 49.259 65.8645 49.425 65.9556 49.563C66.0393 49.6899 65.9312 49.6794 66.0151 49.6072C66.1926 49.4542 66.3264 48.9506 66.3264 48.7427" stroke="black" stroke-width="0.3" stroke-linecap="round"/>
    <path d="M67.6448 49.197C67.686 48.8842 67.865 48.525 68.1575 48.301C68.2796 48.2075 68.8332 47.9716 68.7984 47.9476" stroke="black" stroke-width="0.3" stroke-linecap="round"/>
    <path d="M68.9632 47.7205C69.2044 47.702 69.3659 47.5083 69.5583 47.4239C69.9092 47.27 70.2453 47.0939 70.6066 46.9538C70.924 46.8308 71.3581 46.6024 71.6824 46.5279" stroke="black" stroke-width="0.3" stroke-linecap="round"/>
    <path d="M77.6976 42.7231V44.086" stroke="black" stroke-width="0.3" stroke-linecap="round"/>
    <path d="M73.8248 46.3008C73.7758 46.6043 73.3194 46.7153 73.1656 46.9539C73.0499 47.1332 72.6612 47.6637 72.3416 47.6637" stroke="black" stroke-width="0.3" stroke-linecap="round"/>
    <path d="M67.3152 51.8661C67.0791 52.0107 66.6098 52.1096 66.3264 52.2352C65.9532 52.4006 65.7718 52.5986 65.4841 52.8189C65.2398 53.0059 65.0097 53.2123 64.7196 53.3678C64.5072 53.4817 64.4968 53.7743 64.2664 53.8537" stroke="black" stroke-width="0.3" stroke-linecap="round"/>
    <path d="M62.3712 52.4908C62.5479 52.4542 62.6514 52.289 62.7878 52.2068C62.9814 52.09 63.1998 51.9852 63.4058 51.8787C63.6488 51.7531 63.8515 51.6539 64.0009 51.4686C64.1794 51.247 64.3871 51.0498 64.6784 50.888C64.8891 50.7711 65.031 50.5236 65.2552 50.4464" stroke="black" stroke-width="0.3" stroke-linecap="round"/>
    <path d="M65.3376 50.5599C65.3376 51.0609 64.9066 51.6094 64.7608 52.1059C64.6682 52.4207 64.8862 53.5599 64.3488 53.6833" stroke="black" stroke-width="0.3" stroke-linecap="round"/>
    <path d="M62.3712 51.9797C62.3712 51.6346 62.2449 51.2909 62.124 50.9575" stroke="black" stroke-width="0.3" stroke-linecap="round"/>
    <path d="M62.2064 51.0142C62.2534 50.6899 62.8083 50.2277 63.1494 50.0362C63.6797 49.7384 64.5313 49.4579 65.1728 49.3106" stroke="black" stroke-width="0.3" stroke-linecap="round"/>
    <path d="M61.8768 51.2414C61.3916 51.5758 60.8716 52.0024 60.476 52.3898C60.1956 52.6645 59.8303 52.8108 59.4094 52.9703C59.2139 53.0444 59.0098 53.0353 58.9104 53.1723" stroke="black" stroke-width="0.3" stroke-linecap="round"/>
    <path d="M57.9216 51.7525C58.1747 51.7089 57.8415 50.9998 57.798 50.9038C57.7193 50.7303 57.8987 50.1261 57.6744 50.0488" stroke="black" stroke-width="0.3" stroke-linecap="round"/>
    <path d="M57.0976 50.276C56.5364 51.0496 55.4859 51.6872 54.676 52.3425C54.3369 52.6168 53.9914 53.3426 53.3896 53.3426" stroke="black" stroke-width="0.3" stroke-linecap="round"/>
    <path d="M55.4496 51.9229C55.2433 51.9703 55.0904 52.3334 54.9369 52.4466C54.4654 52.7942 54.007 53.1443 53.5178 53.4814C53.1849 53.7108 52.8009 53.9306 52.5244 54.1944C52.3598 54.3515 52.262 54.4216 51.9888 54.4216" stroke="black" stroke-width="0.3" stroke-linecap="round"/>
    <path d="M53.2248 50.9575C53.111 51.7415 52.8474 52.5189 53.0142 53.3174C53.116 53.8045 53.4341 54.2864 53.7192 54.7339C53.8379 54.9203 54.0488 55.1208 54.0488 55.3302" stroke="black" stroke-width="0.3" stroke-linecap="round"/>
    <path d="M53.1424 50.6167C53.1424 51.2269 52.1071 51.8951 51.4578 52.2037C50.9946 52.4238 50.5524 52.6412 50.2584 52.9451" stroke="black" stroke-width="0.3" stroke-linecap="round"/>
    <path d="M53.5544 51.0143C53.8784 50.8451 54.2076 50.684 54.5478 50.5316C55.1369 50.2677 55.4596 50.0105 55.8983 49.6356C56.3068 49.2865 56.7232 48.9423 57.3448 48.7995" stroke="black" stroke-width="0.3" stroke-linecap="round"/>
    <path d="M50.9176 48.0045C50.9176 48.5972 51.3232 49.2606 51.5723 49.8185C51.7955 50.3186 51.9324 50.8618 52.4832 51.2414" stroke="black" stroke-width="0.3" stroke-linecap="round"/>
    <path d="M50.588 49.5377C50.1759 49.6008 49.6235 50.0854 49.3108 50.2728C49.0307 50.4407 48.2656 50.9995 48.528 50.8186C49.0384 50.4669 49.6068 50.1062 50.2584 49.8816C51.0237 49.6179 51.7181 49.4241 52.0712 48.8563" stroke="black" stroke-width="0.3" stroke-linecap="round"/>
    <path d="M49.764 47.0958C49.764 47.5108 50.3252 47.9385 50.6384 48.2663C51.1357 48.7868 51.7196 49.1652 52.4832 49.481" stroke="black" stroke-width="0.3" stroke-linecap="round"/>
    <path d="M48.0337 49.1402C48.0519 49.6818 48.3801 50.0599 48.7569 50.5158C49.1729 51.019 49.5883 51.4995 50.057 51.9797C50.4736 52.4065 50.5881 52.7063 50.5881 53.229" stroke="black" stroke-width="0.3" stroke-linecap="round"/>
    <path d="M46.5504 50.3328C46.5504 51.5393 47.5437 52.6202 48.322 53.6518C48.632 54.0626 48.6928 54.3027 48.6928 54.7623" stroke="black" stroke-width="0.3" stroke-linecap="round"/>
    <path d="M45.0672 56.2956C45.1008 56.1107 45.611 55.8595 45.7859 55.7467C46.6913 55.163 48.2638 54.6235 48.2808 53.6707C48.2932 52.9777 48.4213 52.6211 49.1323 52.1311C49.3622 51.9726 49.5992 51.8716 49.5992 51.6389" stroke="black" stroke-width="0.3" stroke-linecap="round"/>
    <path d="M45.9736 50.8439C45.5752 51.2682 45.4662 51.8943 45.3785 52.3898C45.268 53.0146 44.9151 53.6198 44.8292 54.2417C44.7631 54.7202 44.7376 55.2153 44.7376 55.6962C44.7376 55.9209 44.8413 56.2737 44.6552 56.466" stroke="black" stroke-width="0.3" stroke-linecap="round"/>
    <path d="M44.9024 49.8785C44.7357 49.7763 44.4336 49.8217 44.2249 49.8217C43.7398 49.8217 43.2543 49.8186 42.7692 49.8217C41.6318 49.8289 40.5183 49.9921 39.3817 49.9921" stroke="black" stroke-width="0.3" stroke-linecap="round"/>
    <path d="M39.052 49.8217C39.126 50.4079 39.6553 50.9171 39.9127 51.4654C40.0992 51.8628 40.2579 52.2655 40.4528 52.6611C40.6961 53.1548 40.958 53.6489 41.1944 54.1377" stroke="black" stroke-width="0.3" stroke-linecap="round"/>
    <path d="M36.9097 51.5821C37.1468 51.5617 36.9921 49.6492 36.9921 49.3674" stroke="black" stroke-width="0.3" stroke-linecap="round"/>
    <path d="M38.2281 49.9921C37.6139 50.1444 36.7231 50.6744 36.1864 50.2634C35.7506 49.9297 35.5119 49.4799 35.0969 49.1402C34.9305 49.004 34.6849 48.7803 34.6849 48.6007C34.6849 48.4571 34.7694 48.3686 34.9504 48.2884C35.4562 48.0643 36.0079 47.8709 36.4793 47.6069C36.6957 47.4857 36.9227 47.3821 37.1477 47.2693C37.3565 47.1647 37.4077 47.1898 37.1477 47.2346C36.6045 47.3282 36.0072 47.3001 35.4722 47.4145C34.8347 47.5508 34.3957 47.8351 34.1081 48.2316" stroke="black" stroke-width="0.3" stroke-linecap="round"/>
    <path d="M34.1905 48.7427C33.6213 48.7427 33.0409 48.8734 32.4601 48.7869C32.0487 48.7256 31.5627 48.6938 31.1417 48.6859C30.8167 48.6799 30.4442 48.7295 30.1529 48.6291" stroke="black" stroke-width="0.3" stroke-linecap="round"/>
    <path d="M30.4001 48.7995C30.4485 48.983 30.6924 49.1647 30.8304 49.3232C31.0786 49.6083 31.2994 49.9054 31.5537 50.1877C32.2271 50.9354 32.9386 51.6147 33.6961 52.3204C33.9469 52.5541 34.1244 52.8005 34.2729 53.0713C34.3478 53.2081 34.312 53.3596 34.3965 53.4877C34.4691 53.5979 34.4276 53.6764 34.5613 53.7685C34.7045 53.8673 34.8 53.9441 34.8497 54.0809" stroke="black" stroke-width="0.3" stroke-linecap="round"/>
    <path d="M35.6737 50.4464C35.6737 50.7111 35.684 50.9768 35.6737 51.2414C35.6553 51.7101 35.3096 52.1251 35.4677 52.6043C35.6851 53.2638 35.8385 53.8622 35.8385 54.5352" stroke="black" stroke-width="0.3" stroke-linecap="round"/>
    <path d="M36.0857 50.6735C35.6751 51.7423 35.7561 52.8018 35.7561 53.9042C35.7561 54.0994 35.8164 54.3505 35.9621 54.0493C36.1929 53.572 36.0857 52.9049 36.0857 52.4119C36.0857 51.8369 36.0033 51.2788 36.0033 50.7051C36.0033 49.7004 35.416 52.8824 36.2322 53.7149C36.3969 53.8829 36.4328 53.9736 36.3329 54.1629C36.1969 54.4206 36.1681 54.7675 36.1681 55.0431C36.1681 55.3731 36.2505 54.8441 36.2505 54.7623C36.2505 54.3059 36.225 53.8985 36.0445 53.4562C35.9934 53.331 35.7561 52.6501 35.7561 53.1028C35.7561 53.4077 35.7096 53.7277 35.8202 54.0241C35.872 54.1629 36.1681 55.0049 36.1681 54.5919" stroke="black" stroke-width="0.3" stroke-linecap="round"/>
    <path d="M35.8384 50.4464C35.8384 51.6214 36.0856 55.1423 36.0856 53.9673" stroke="black" stroke-width="0.3" stroke-linecap="round"/>
    <path d="M35.3441 49.9353C35.4988 49.9753 35.5178 50.3787 35.5547 50.4779C35.6864 50.8327 35.8292 51.1921 36.0033 51.538C36.1844 51.8979 36.4977 52.3888 36.4977 52.7747" stroke="black" stroke-width="0.3" stroke-linecap="round"/>
    <path d="M33.2841 48.2884C33.8968 49.519 34.8186 50.7657 36.1681 51.6957" stroke="black" stroke-width="0.3" stroke-linecap="round"/>
    <path d="M30.7297 46.8119C30.5904 46.9319 30.6541 47.127 30.6061 47.2725C30.492 47.6186 30.4558 48.0218 30.4001 48.3767C30.3154 48.9164 30.3177 49.4501 30.3177 49.9921" stroke="black" stroke-width="0.3" stroke-linecap="round"/>
    <path d="M28.0105 46.6983C28.0416 46.891 28.2769 47.1039 28.4225 47.2662C28.7072 47.5837 28.8547 47.9566 29.1183 48.2852C29.4517 48.701 29.6474 49.3812 30.2353 49.6513" stroke="black" stroke-width="0.3" stroke-linecap="round"/>
    <path d="M28.2577 47.6069C28.2577 47.2189 28.3426 47.1171 28.7155 46.8087C29.6049 46.0732 30.4001 45.3086 30.4001 44.3132" stroke="black" stroke-width="0.3" stroke-linecap="round"/>
    <path d="M25.1265 44.6539C24.7615 44.9263 24.5222 45.2517 24.2521 45.5688C23.8453 46.0464 23.2722 46.4588 22.9063 46.9507C22.5085 47.4853 22.5149 48.052 22.6545 48.6291" stroke="black" stroke-width="0.3" stroke-linecap="round"/>
    <path d="M22.9017 46.1872C23.0413 46.957 23.7061 47.7226 24.2201 48.3988C24.6901 49.0173 25.3038 49.5768 25.7033 50.2192" stroke="black" stroke-width="0.3" stroke-linecap="round"/>
    <path d="M24.1377 46.4144C24.5741 47.0336 24.804 47.7047 25.2089 48.3326C25.3723 48.5859 25.7422 49.182 26.1153 49.3106" stroke="black" stroke-width="0.3" stroke-linecap="round"/>
    <path d="M26.3625 49.5377C26.3625 48.7059 26.1605 47.9587 25.8681 47.1526" stroke="black" stroke-width="0.3" stroke-linecap="round"/>
    <path d="M25.8681 47.6637C26.1099 47.997 26.4588 48.3772 26.5914 48.7427C26.6688 48.9561 26.6752 49.1227 26.8569 49.3106" stroke="black" stroke-width="0.3" stroke-linecap="round"/>
    <path d="M26.2801 47.3798C26.6565 47.4446 26.7647 48.5032 26.8157 48.6985C26.9325 49.1458 26.9576 49.5892 27.04 50.0362C27.0607 50.1487 27.0472 50.4551 27.1865 50.5032" stroke="black" stroke-width="0.3" stroke-linecap="round"/>
    <path d="M24.0553 44.0292C24.1935 45.3625 25.7826 46.3512 26.3625 47.5501" stroke="black" stroke-width="0.3" stroke-linecap="round"/>
    <path d="M41.9361 50.9575C42.2469 51.2977 42.4808 51.7525 42.5953 52.1469C42.6631 52.3808 42.6879 52.7817 42.9249 52.9451" stroke="black" stroke-width="0.3" stroke-linecap="round"/>
    <path d="M41.112 49.8785C41.5823 49.8461 42.116 49.5765 42.5449 49.4526C43.1599 49.2748 43.6165 48.8907 44.0784 48.5723" stroke="black" stroke-width="0.3" stroke-linecap="round"/>
    <path d="M42.5952 48.7427C43.2872 49.9348 44.463 50.9585 45.0672 52.1848C45.2843 52.6252 45.3968 53.0496 45.3968 53.513C45.3968 53.6335 45.4831 53.9092 45.3144 53.9673" stroke="black" stroke-width="0.3" stroke-linecap="round"/>
    <path d="M43.2544 50.9007C43.1897 51.6144 43.3121 52.1168 43.6664 52.7936C43.902 53.2437 44.1541 53.7923 44.6552 54.1376" stroke="black" stroke-width="0.3" stroke-linecap="round"/>
    <path d="M37.9809 50.3896C38.5778 50.801 38.8567 51.4305 39.0887 51.9828C39.1834 52.2083 39.2859 52.8269 39.6289 52.9451" stroke="black" stroke-width="0.3" stroke-linecap="round"/>
    <path d="M34.8497 50.0488C34.549 50.6244 34.1905 51.2404 34.1905 51.8661" stroke="black" stroke-width="0.3" stroke-linecap="round"/>
    <path d="M31.7185 48.9131C31.746 49.7458 32.417 50.544 33.0369 51.2383C33.5482 51.8109 34.017 52.407 34.6025 52.9451" stroke="black" stroke-width="0.3" stroke-linecap="round"/>
    <path d="M19.9353 41.5305C19.9929 41.0937 20.6384 40.6834 21.0065 40.3663C21.2931 40.1194 21.8868 40.1177 22.2425 40.2811" stroke="black" stroke-width="0.3" stroke-linecap="round"/>
    <path d="M24.7145 41.8145C25.1069 41.8145 25.6837 42.3055 25.9322 42.4833C26.2863 42.7367 26.5621 43.2001 26.7928 43.5181C26.9676 43.759 27.2689 44.5257 27.2689 44.2564C27.2689 43.5265 26.4292 42.9624 25.8681 42.3823" stroke="black" stroke-width="0.3" stroke-linecap="round"/>
    <path d="M14.0849 37.2713C14.243 37.2985 14.5517 38.1141 14.6434 38.2241C14.8717 38.498 15.2053 38.7588 15.4033 39.0318" stroke="black" stroke-width="0.3" stroke-linecap="round"/>
    <path d="M16.3097 38.9182C16.4915 39.6198 17.2265 40.1891 17.5457 40.849" stroke="black" stroke-width="0.3" stroke-linecap="round"/>
    <path d="M80.6639 40.1108V41.5305" stroke="black" stroke-width="0.3" stroke-linecap="round"/>
    <path d="M84.2071 38.975C84.1209 39.0418 84.0905 39.1271 84.024 39.2021C83.9268 39.3117 83.7064 39.3184 83.5891 39.4261C83.4046 39.5957 83.0584 39.711 82.8063 39.8268" stroke="black" stroke-width="0.3" stroke-linecap="round"/>
    <path d="M78.6863 41.3033C78.6863 41.5519 78.2561 41.7609 78.0271 41.928C77.8606 42.0495 77.6372 42.3179 77.4503 42.3823" stroke="black" stroke-width="0.3" stroke-linecap="round"/>
    <path d="M76.9559 44.2563C76.6556 44.4634 76.5035 44.7034 76.1319 44.8936C75.8278 45.0494 75.6168 45.2502 75.3079 45.3921" stroke="black" stroke-width="0.3" stroke-linecap="round"/>
    <path d="M73.412 45.2218C73.412 45.6734 73.3304 46.1277 73.3304 46.5847" stroke="black" stroke-width="0.3" stroke-linecap="round"/>
    <path d="M74.2368 45.6761C74.3208 45.9465 74.6613 46.3505 74.896 46.5816C75.082 46.7647 75.1963 46.9743 75.3904 47.1526" stroke="black" stroke-width="0.3" stroke-linecap="round"/>
    <path d="M59.8168 54.0241C59.5135 54.2208 59.0917 54.3762 58.7456 54.5352" stroke="black" stroke-width="0.3" stroke-linecap="round"/>
    <path d="M62.2064 49.4242C61.7538 49.5201 61.5223 49.8833 61.2176 50.1056C60.9094 50.3305 60.6703 50.5153 60.2288 50.6167C59.8764 50.6977 59.6181 50.7105 59.9999 50.459C60.5292 50.1104 61.3432 49.9014 61.9775 49.6639C62.0467 49.638 63.3805 49.1211 63.1769 49.0393C63.0334 48.9816 62.4746 49.3077 62.3529 49.3548C61.9612 49.5062 61.5498 49.6461 61.1352 49.7649C60.9814 49.809 59.771 50.1373 59.771 50.2634C59.771 50.3616 59.9642 50.1164 60.0823 50.0615C60.3909 49.918 60.6131 49.7221 60.9017 49.5598C61.6759 49.1246 62.4555 48.7149 63.3051 48.3515C63.932 48.0833 63.1035 48.5982 62.948 48.6859C62.4646 48.9585 61.9938 49.23 61.5518 49.5346C61.4861 49.5798 60.9484 49.9709 61.2634 49.7933C61.7015 49.5462 62.2284 49.3362 62.7557 49.197C63.2114 49.0767 63.6922 48.9726 64.1657 48.891C64.204 48.8844 64.7285 48.8091 64.5639 48.9225C64.0358 49.2865 63.1931 49.4327 62.5497 49.6766C62.1246 49.8377 62.4441 49.5611 62.6184 49.481" stroke="black" stroke-width="0.3" stroke-linecap="round"/>
    <path d="M63.772 48.9698C63.4804 49.1176 63.1627 49.2309 62.8656 49.3674" stroke="black" stroke-width="0.3" stroke-linecap="round"/>
    <path d="M83.5862 36.8772C83.0927 36.8772 82.7422 37.1726 82.3092 37.4221C81.3353 37.9833 80.3807 38.579 79.3956 39.1214C79.001 39.3387 79.4239 39.0476 79.4983 39.0067C80.3366 38.5461 81.0531 37.8032 81.7294 37.1425C81.9017 36.9742 82.5488 36.2274 82.5 36.4183C82.3371 37.0547 81.9111 37.5857 81.6046 38.1678C81.4553 38.4515 81.0127 39.2894 81.0836 38.978C81.2583 38.2097 81.9584 37.6496 82.5293 37.1425C82.8578 36.8508 83.9104 36.0655 83.6155 36.3897C83.3611 36.6693 83.2566 36.9731 83.0577 37.2644" stroke="black" stroke-width="0.3" stroke-linecap="round"/>
    <path d="M83.5552 36.2231C82.6491 37.0177 81.7652 37.8883 80.7885 38.6039C80.7384 38.6406 80.5367 38.7899 80.4587 38.7471C80.3266 38.6745 80.9204 38.1529 80.9626 38.1116C81.5828 37.5057 82.3806 37.1369 83.0422 36.608C83.2466 36.4446 82.9482 36.8259 82.9139 36.8676C82.7079 37.118 82.4523 37.4005 82.2818 37.6731C82.1928 37.8154 81.8289 38.7549 82.0528 38.3175C82.285 37.8638 82.7216 37.4125 83.1017 37.0734C83.1436 37.0361 83.7018 36.6642 83.7018 36.7781C83.7018 37.2866 83.164 37.6653 82.9139 38.0579C82.8887 38.0975 82.6199 38.5429 82.6666 38.3801C82.7487 38.0937 82.8259 37.8202 82.9414 37.5433C83.1365 37.0754 83.6268 36.1426 84.2515 36.1426C84.6382 36.1426 84.1942 36.9605 84.1507 37.1092C84.1381 37.1521 84.0049 37.4878 84.0682 37.333C84.1671 37.0916 84.4049 36.9562 84.5904 36.787C84.644 36.7381 85.1126 36.4151 85.1126 36.5185C85.1126 36.6456 84.9143 37.072 84.9935 36.9123C85.1014 36.6949 85.4195 36.1655 85.6577 36.062C85.6894 36.0483 85.9508 35.8706 85.8959 35.9457C85.8135 36.0585 85.7424 36.2134 85.6165 36.2858C85.1818 36.5356 85.9264 35.8666 85.6577 36.1873C85.5687 36.2936 84.8279 36.9487 84.8928 36.6528C84.9545 36.3711 85.1719 36.1935 85.2867 35.9412C85.3437 35.8159 85.3691 35.7119 85.3691 35.9009" stroke="black" stroke-width="0.3" stroke-linecap="round"/>
    <path d="M89.8186 31.9264C88.6666 33.1636 87.544 34.4574 86.3241 35.634C86.0657 35.8832 86.1129 35.8268 86.1185 35.634C86.1241 35.4437 86.1604 35.3595 86.3082 35.2632" stroke="black" stroke-width="0.3" stroke-linecap="round"/>
    <path d="M88.4904 32.2971C88.4612 32.0693 88.2126 32.6545 88.1583 32.7194C87.9567 32.9601 87.8488 33.3146 87.6892 33.5845C87.5695 33.7868 86.8981 35.4589 86.7088 35.4589C86.6517 35.4589 87.2797 34.3342 87.3519 34.2385C87.8136 33.6263 88.2219 32.9982 88.717 32.4053C88.849 32.2471 90.0012 31.0085 89.418 31.741C88.981 32.29 88.5377 32.85 88.0582 33.3631C87.9586 33.4696 87.2028 34.4805 87.0672 34.4805C87.005 34.4805 88.0591 33.0976 88.1161 33.0387C88.541 32.5992 88.9511 32.1383 89.418 31.741C89.5533 31.6259 90.1891 31.0558 89.7553 31.5453C88.8991 32.5116 88.1414 33.565 87.2148 34.4702C87.0327 34.6482 86.8729 34.8671 86.6877 35.0366C86.6855 35.0387 87.0662 34.3816 87.1621 34.223C87.4985 33.6668 87.8532 33.1558 88.2953 32.673C88.6855 32.247 89.0703 31.5258 89.6183 31.2878C90.0112 31.1173 89.6758 31.6527 89.5867 31.8131C89.2302 32.4551 88.788 33.1135 88.3533 33.7081C88.0114 34.1758 87.7226 34.7088 87.3571 35.1551C87.0529 35.5266 87.2491 35.3414 87.4046 35.016C87.9882 33.7942 88.7279 32.6869 89.7237 31.741C90.0582 31.4233 89.6873 31.9901 89.6288 32.0757C89.283 32.5825 88.8748 33.0235 88.4324 33.4558C87.8495 34.0253 87.1684 34.4903 86.4769 34.9233C86.2583 35.0602 85.9058 35.4338 86.1343 34.9594C86.6259 33.9389 87.2689 32.825 88.2057 32.1324C88.588 31.8498 88.3904 32.2124 88.2374 32.4053C87.7396 33.0327 87.1771 33.6053 86.5876 34.1509C86.2214 34.4899 85.8325 34.8011 85.4755 35.1499C85.4201 35.204 85.9708 34.6866 86.1185 34.5732C87.0045 33.8931 87.8041 33.1834 88.8013 32.6421C89.2041 32.4235 88.2785 33.3898 87.9527 33.7081C87.2696 34.3755 86.4944 35.0997 85.6968 35.634C85.3913 35.8386 84.5312 36.5015 84.7586 36.2158C85.1742 35.6938 85.5815 35.1727 86.0184 34.6659C86.4943 34.1137 86.9239 33.4979 87.4467 32.9872C87.5174 32.9181 88.219 32.2964 88.2057 32.5237C88.1772 33.0112 87.6614 33.3604 87.3571 33.6926C86.9221 34.1677 86.5604 34.6788 86.0763 35.1139C86.02 35.1645 85.6231 35.5664 85.8023 35.2941C86.1604 34.7499 86.7164 34.3036 87.1832 33.8523C87.7792 33.276 88.4204 32.7951 89.0912 32.3074C89.3165 32.1437 90.1107 31.58 89.6447 32.2714C89.1822 32.9575 88.4421 33.4658 87.8052 33.9861C87.1431 34.527 86.4516 35.0338 85.6863 35.428C85.4049 35.5729 85.3578 35.6359 85.5071 35.3044C85.7336 34.8014 86.215 34.2795 86.5981 33.8832C86.9574 33.5115 87.4227 33.1731 87.8473 32.8739C87.9622 32.7929 88.4946 32.3288 88.3533 32.7297C88.0825 33.4982 87.1959 34.1225 86.5823 34.6144C86.1052 34.9969 85.6123 35.3854 85.0749 35.6855C84.6894 35.9007 84.8251 35.7148 84.9958 35.5258C85.697 34.7494 86.4567 33.8516 87.4467 33.4094C88.2423 33.0541 86.5214 34.9737 85.739 35.3559" stroke="black" stroke-width="0.3" stroke-linecap="round"/>
    <path d="M87.1621 37.3024C86.8805 36.9929 87.3214 36.324 87.7103 36.324C88.0659 36.324 87.1174 36.7217 86.7826 36.8389C86.3359 36.9954 85.6563 37.3305 86.4559 36.8595C86.9618 36.5615 87.5436 36.3179 88.0898 36.0974C88.4696 35.9441 89.169 35.6211 88.4377 36.0974C87.8904 36.4539 87.3718 36.6807 86.7826 36.9522C86.5182 37.0741 85.8562 37.3857 86.4242 36.9316C87.0623 36.4216 87.7539 36.115 88.4693 35.7267C88.6542 35.6263 89.7036 35.1539 89.0385 35.5619C88.1826 36.087 85.7579 37.8659 86.5402 37.2406C87.1718 36.7358 87.71 36.134 88.3955 35.6752C88.613 35.5296 88.8194 35.3488 89.0385 35.2117C89.2013 35.1099 88.8036 35.7582 88.775 35.7988C88.2963 36.4781 87.4797 37.0809 86.7826 37.5393C86.7657 37.5504 86.3365 37.822 86.3294 37.8173C86.1883 37.7255 86.9098 37.0725 86.9724 37.0243C87.6486 36.5033 88.3926 36.012 89.2072 35.7267C89.8578 35.4988 89.8688 35.5356 89.2494 36.0047C88.3007 36.7233 87.1687 37.2655 86.1607 37.91C85.8915 38.0822 85.8028 38.0678 86.0974 37.807C86.635 37.3313 87.179 36.8555 87.7314 36.3961C88.0265 36.1506 88.3678 35.9699 88.6801 35.7473C88.7404 35.7043 89.0535 35.4616 88.9015 35.6958C88.4707 36.3595 87.6331 36.8911 87.0146 37.3745C86.5675 37.7239 86.2092 38.0192 86.7826 37.3745C87.3902 36.6913 88.1956 36.0468 88.9648 35.5413C89.5128 35.1811 89.6604 35.2789 89.2072 35.7885C88.5624 36.5135 87.7086 36.9558 86.9408 37.5393C86.4696 37.8973 87.2619 37.0184 87.3519 36.911C87.495 36.7401 88.3056 35.7658 88.5642 35.8606C88.834 35.9594 86.9116 37.4642 86.7826 37.5393C86.6292 37.6285 85.9177 38.0798 85.7285 38.0027C85.5542 37.9318 85.9912 37.7368 86.1343 37.6165C86.3693 37.4191 86.6062 37.2237 86.8564 37.0449C86.9049 37.0103 87.5358 36.5617 87.5733 36.6227C87.698 36.8258 86.4802 37.3692 86.3821 37.4157C85.4628 37.8511 84.5579 38.3428 83.6518 38.7854" stroke="black" stroke-width="0.3" stroke-linecap="round"/>
    <path d="M80.9953 37.5805C81.0314 37.8629 81.919 37.5282 82.0389 37.4878C82.6005 37.2986 83.1374 37.0464 83.694 36.8441C84.0095 36.7294 84.9689 36.4785 84.6322 36.4785C84.4281 36.4785 83.9955 36.924 83.8415 37.0449C83.401 37.3908 82.935 37.723 82.4606 38.0233C82.1307 38.2321 81.8177 38.4581 81.475 38.6464C81.093 38.8563 81.6541 38.3921 81.7543 38.2808C82.1092 37.8868 82.6737 37.6343 83.1247 37.3539C83.3437 37.2177 83.2661 37.2743 83.0615 37.4466C82.3254 38.0665 81.4828 38.4967 80.6369 38.9502C80.3523 39.1028 79.5272 39.5812 79.7567 39.357C80.3184 38.8082 81.0571 38.3969 81.7069 37.9564C82.1042 37.687 82.5903 37.3667 83.0615 37.2303C83.1491 37.2049 83.0211 37.4148 82.956 37.4775C82.6482 37.7738 82.2939 37.988 81.9441 38.2293" stroke="black" stroke-width="0.3" stroke-linecap="round"/>
    <path d="M9.93452 30.1653C9.89287 29.799 9.55503 29.5848 9.55503 29.192C9.55503 28.7795 9.63896 29.56 9.79221 29.743C10.0941 30.1035 10.1902 30.31 10.119 29.6143C10.0871 29.303 9.8525 29.0244 9.76586 28.7234C9.7369 28.6229 9.86496 29.2736 9.93979 29.4289C10.1927 29.9539 10.4377 30.5433 10.8095 30.9995C10.8735 31.0781 11.3197 31.742 11.3524 31.5505C11.4409 31.0316 11.0145 30.3797 10.7515 29.9799C10.6635 29.8462 10.6427 29.7036 10.5249 29.5886C10.3394 29.4074 10.8249 30.0089 10.9781 30.2168C11.0868 30.3643 11.406 30.9583 11.6423 30.9583C11.8668 30.9583 11.0737 29.9433 11.0203 29.8821C10.5993 29.3998 10.1501 28.93 9.70788 28.466C9.25517 27.9909 9.21373 28.1241 9.36528 28.7337C9.51454 29.3342 9.73465 30.4472 10.2402 30.8862C10.3247 30.9596 10.3148 30.4039 10.3087 30.3507C10.26 29.9223 9.96037 29.519 9.76586 29.1457C9.70534 29.0296 9.27268 28.316 9.28621 28.4351C9.34495 28.9516 9.74028 29.442 9.95561 29.9078C10.1101 30.2421 10.3531 30.5191 10.5038 30.8502C10.5512 30.9544 10.5532 30.1418 10.5038 29.9799C10.3666 29.5306 10.1601 29.127 9.98723 28.6926C9.95693 28.6164 9.82226 28.1995 9.83965 28.4969C9.88545 29.28 10.692 30.3802 11.2628 30.9068C11.8985 31.4934 10.6478 29.307 10.314 28.5175C10.2678 28.4083 10.106 27.8714 10.1243 28.2291C10.1572 28.8718 10.5187 29.3363 10.878 29.8409C10.8965 29.8669 11.2542 30.4704 11.3366 30.3095C11.5097 29.9712 11.1494 29.5296 10.9729 29.2796C10.7267 28.9309 10.5027 28.5877 10.2929 28.2188C10.1988 28.0533 10.2515 28.7445 10.2719 28.8213C10.3948 29.2845 10.5909 29.8309 10.8095 30.258C10.9053 30.4452 11.2965 31.0596 11.2575 30.5257C11.2192 30.0022 10.9264 29.5237 10.6724 29.0736C10.6255 28.9905 10.1703 28.054 10.0768 28.054C9.96035 28.054 10.6381 29.9876 10.7146 30.1653C10.7461 30.2385 11.3845 31.1985 11.3998 31.1488C11.5344 30.7105 11.1454 30.0384 10.9781 29.6297C10.9216 29.4916 10.6935 28.9415 10.6935 28.9809C10.6935 29.4806 10.9592 29.9183 11.189 30.3507C11.2278 30.4237 11.5242 30.9539 11.5421 30.8399C11.68 29.9645 10.6483 28.8932 10.1664 28.2394C9.849 27.8087 10.2221 29.3073 10.3615 29.8203C10.4389 30.1054 10.5828 30.7575 10.8095 30.9789C10.8796 31.0474 10.7629 30.1603 10.7304 30.0674C10.5818 29.6432 10.3934 29.0741 10.1243 28.7029C9.81195 28.2721 10.0525 29.981 10.5249 30.2374C10.6278 30.2933 10.3715 29.0887 10.314 28.9603C10.1635 28.6241 9.99396 28.1327 9.72369 27.8686C9.65252 27.7991 9.77544 28.6966 9.79748 28.7749C9.93564 29.2658 10.0741 29.8545 10.314 30.3095C10.4058 30.4834 10.3813 29.4805 10.314 29.2899C10.2869 29.2131 10.1108 28.5091 10.1243 28.8573C10.1755 30.1839 10.9635 31.47 11.6423 32.5752" stroke="black" stroke-width="0.3" stroke-linecap="round"/>
    <path d="M12.1166 32.2971C12.2613 32.5412 12.6463 33.2339 12.9178 33.3476C13.0877 33.4187 12.6168 32.3009 12.591 32.2559C12.5414 32.1693 12.0536 31.1743 11.8847 31.3393C11.6284 31.5897 11.7244 32.3226 11.7846 32.6164C11.8399 32.8866 11.9114 33.2849 12.1377 33.4815C12.2406 33.5709 12.1928 33.2138 12.1904 33.2034C12.1052 32.8287 11.8664 32.5102 11.6423 32.2044C11.164 31.552 10.5568 30.7428 10.2402 30.0005C10.0833 29.6326 10.2864 30.8047 10.4089 31.1849C10.5231 31.5393 10.6224 32.1309 10.9254 32.3847C11.2419 32.6497 11.0217 31.4786 10.9676 31.3239C10.6413 30.3904 10.0687 29.5422 9.56029 28.6977C8.92042 27.635 9.6341 29.3826 9.79221 29.6915C9.84824 29.801 10.4612 30.6882 10.4985 30.433C10.5708 29.9385 10.4359 29.4712 10.2666 29.0118C10.2031 28.8395 10.0118 28.1716 9.84491 28.0901C9.78842 28.0625 10.0257 29.0459 10.0768 29.1457C10.7065 30.376 10.6175 28.8194 10.2929 28.2909C10.1488 28.0562 9.99906 27.8155 9.83964 27.5906C9.67823 27.3628 9.74329 28.0235 9.74477 28.0849C9.75896 28.674 9.96714 29.2923 10.314 29.7739C10.5662 30.1241 10.5038 29.0893 10.5038 28.9603C10.5038 28.5582 10.3415 28.1228 10.0768 27.8068C9.8404 27.5245 10.0265 28.9659 10.177 29.2332C10.2473 29.3581 10.5986 29.949 10.5986 29.5113C10.5986 29.0264 10.4351 28.6524 10.2191 28.2188C10.0862 27.9517 9.74477 27.4101 9.74477 28.0334C9.74477 28.4291 9.85928 28.937 10.0505 29.2899C10.2743 29.7029 9.93649 28.3483 9.74477 27.9201C9.59827 27.593 9.42709 27.273 9.29148 26.9417C9.26998 26.8892 9.35456 27.4648 9.38636 27.57C9.42196 27.6877 10.1298 29.4563 10.1981 29.4341C10.3741 29.3767 9.93452 26.7044 9.93452 28.4969" stroke="black" stroke-width="0.3" stroke-linecap="round"/>
    <path d="M11.9269 29.8872C12.4814 30.4892 12.6318 31.4088 12.9916 32.1118C13.0627 32.2508 12.9133 31.5799 12.8545 31.4629C12.5659 30.8882 12.23 30.33 11.9058 29.7739C11.6928 29.4086 11.3782 28.8043 11.0519 28.5175C10.9805 28.4547 10.878 29.3573 10.9044 29.4958C10.9539 29.7562 11.0516 30.0297 11.189 30.258C11.3632 30.5473 11.3347 30.0308 11.2628 29.9078C11.0415 29.5295 10.8802 29.1492 10.5986 28.7955C10.372 28.5108 10.1477 27.9894 10.2402 28.6822C10.3122 29.221 10.4739 29.8325 10.6408 30.3507C10.6589 30.4069 10.916 31.068 10.9571 30.9377C11.0729 30.5699 10.9049 29.9638 10.7884 29.6091C10.6935 29.3202 10.5254 28.8196 10.6197 29.4444C10.812 30.7178 11.3573 31.8069 12.2115 32.7606" stroke="black" stroke-width="0.3" stroke-linecap="round"/>
    <path d="M11.5474 30.9068C11.5912 32.0639 12.0295 33.5381 12.4961 34.5938C12.7561 35.182 12.641 33.9636 12.591 33.8008C12.4459 33.3284 12.1626 32.8851 12.0007 32.4104C11.8049 31.8366 11.8281 32.6459 11.832 32.8533C11.8445 33.5222 12.0604 34.2498 12.3064 34.8719C12.5125 35.3931 12.4353 35.0845 12.3802 34.6659C12.3283 34.2718 12.1166 33.1048 12.1166 33.5021" stroke="black" stroke-width="0.3" stroke-linecap="round"/>
    <path d="M11.3576 33.9655C11.0287 33.9254 10.4216 32.8617 10.2402 32.6164C10.2117 32.5778 9.98247 32.0537 9.9556 32.0603C9.82126 32.0931 10.0672 33.1027 10.1243 33.224C10.2307 33.4504 10.2836 33.8547 10.5038 33.9861C10.6567 34.0775 10.8733 34.2954 10.8833 33.9655C10.915 32.9097 10.0129 32.3932 9.65517 31.5196C9.52473 31.201 9.78298 32.196 9.88708 32.5237C10.0716 33.1045 10.4587 33.5994 10.7357 34.1406C10.809 34.284 11.073 34.7422 11.073 34.326C11.073 33.7189 10.7658 33.1568 10.4985 32.6216C10.2566 32.1371 9.70816 31.6596 9.56029 31.154C9.42856 30.7035 9.81495 32.0635 10.0294 32.4825C10.2704 32.9534 10.5743 33.4365 10.8833 33.8677C10.9833 34.0074 11.2628 34.5205 11.2628 34.1097C11.2628 32.8914 10.4735 31.9195 10.0294 30.8347C9.76389 30.1862 10.0091 31.3439 10.0505 31.5041C10.3267 32.5737 10.8655 33.6628 11.4314 34.6144C11.4955 34.7221 12.3064 35.8751 12.3064 35.5722C12.3064 34.9332 12.0405 34.3648 11.8109 33.7802C11.6087 33.265 11.4134 32.6983 11.1679 32.2044C10.8651 31.5954 11.07 32.6901 11.1257 32.8584C11.389 33.6535 11.7902 34.4203 12.201 35.1499C12.2743 35.2802 12.6642 36.2322 12.5805 35.6185C12.5026 35.048 12.2278 34.4946 12.1166 33.9244C11.9675 33.1594 12.1695 34.8465 12.2168 35.0109C12.4272 35.7434 12.6863 36.4544 12.8756 37.1942C12.9411 37.4501 12.9705 36.3643 12.9705 36.2004C12.9705 35.9664 12.8377 35.65 12.8809 36.0511C12.9134 36.3532 13.0654 36.6203 13.0654 36.9316" stroke="black" stroke-width="0.3" stroke-linecap="round"/>
    <path d="M10.5038 33.0387C10.534 33.2747 10.6021 32.8263 10.5986 32.7606C10.5739 32.2897 10.3091 31.807 10.1454 31.3702C10.0105 31.0104 9.89424 30.6409 9.76586 30.2786C9.75633 30.2517 9.99499 31.084 10.0821 31.3239C10.1135 31.4104 10.6694 32.9283 10.7673 32.8327C11.0398 32.5664 10.428 31.2627 10.3615 30.9634C10.2961 30.6698 10.2191 30.4357 10.2191 30.9222C10.2191 31.5425 10.2591 32.1433 10.314 32.7606C10.3329 32.9726 10.6199 34.6442 10.5986 33.6669C10.5793 32.7796 10.3743 31.5252 10.0347 30.6957C9.64918 29.7541 10.5693 32.6627 10.9781 33.5948" stroke="black" stroke-width="0.3" stroke-linecap="round"/>
    <path d="M65.1313 46.5263L66.1818 48.0658L69.8586 44.4737L70.9091 45.5L73.5354 41.3947L74.5859 42.9342L77.7374 38.8289V39.8553L83.5152 36.7763" stroke="black"/>
    <path d="M86.1414 36.2632L90.8687 29.0789L86.6667 36.7763L91.9192 32.1579L86.6667 37.8026" stroke="black"/>
    <path d="M91.1133 28.7275C91.0567 29.2256 90.5168 29.6843 90.3316 30.1496C90.1664 30.5647 90.2479 31.6483 90.0283 30.6829C89.9374 30.2831 89.9473 29.5722 90.116 29.2016C90.1735 29.075 90.1429 28.715 90.1429 29.0896C90.1429 29.364 90.1429 29.6383 90.1429 29.9126C90.1429 30.4353 90.3499 28.8424 90.6888 28.4378C91.0949 27.9529 91.1133 28.878 91.1133 29.1357C91.1133 29.4063 91.093 30.4379 91.1133 29.5834C91.1266 29.0259 91.8411 27.5115 91.8411 28.0692C91.8411 28.6974 91.1678 29.43 90.992 30.0311C90.8595 30.4841 91.0656 29.2833 91.1403 29.1094C91.3489 28.6234 91.6802 28.1364 92.0837 27.7861C92.2831 27.6129 92.5885 27.4717 92.8654 27.549C93.0541 27.6017 92.605 28.2833 92.5419 28.372C92.2536 28.7776 92.1365 29.1724 91.7265 29.4978C91.6315 29.5733 91.1233 30.2397 91.1133 30.0048C91.0795 29.2124 91.3686 28.8943 91.9624 28.3786C92.1141 28.2468 92.6969 27.6881 92.9058 27.7136C92.9135 27.7146 92.1453 28.7487 92.0231 28.8526C91.6022 29.2102 91.2452 29.6072 90.7764 29.9126C90.2938 30.2269 90.7207 29.5693 90.8033 29.3859C91.0699 28.794 91.3258 28.1775 91.7872 27.7268C91.9724 27.5459 92.1057 27.705 92.0163 27.9046C91.8259 28.3297 91.5045 28.844 91.2076 29.2016C91.0959 29.3361 90.399 30.0529 90.399 30.0113C90.399 29.5872 90.8006 29.0967 91.019 28.7539C91.2323 28.4189 91.4862 28.0136 91.8141 27.7795C91.9407 27.6891 92.2458 27.5815 92.3263 27.4832C92.4695 27.3083 92.4476 27.7158 92.4476 27.7795C92.4476 28.2197 92.2139 28.518 92.0231 28.9053C91.8747 29.2062 90.2837 30.9107 90.5338 30.0311C90.7704 29.1987 91.7555 27.8476 92.5689 27.4503C93.0982 27.1917 92.1095 28.9927 91.9894 29.1752C91.2735 30.2631 91.6291 29.0233 91.8411 28.5168C91.9693 28.2107 92.1159 27.8755 92.3533 27.6346C92.5007 27.4851 92.869 27.2304 92.6228 27.6083C92.3846 27.974 92.1487 28.4184 91.8411 28.7275C91.5923 28.9776 91.0835 29.432 91.3694 28.7736C91.6193 28.198 91.9756 27.6594 92.3196 27.1343C92.3771 27.0464 92.8594 26.2141 92.9058 26.2652C93.4237 26.8345 92.1446 28.2479 91.8141 28.5827C91.0143 29.393 91.9667 27.6741 92.2589 27.6741C92.5689 27.6741 91.5671 29.0238 91.5042 29.1094C91.1335 29.6133 90.5993 30.169 90.3383 30.7356C89.8157 31.8701 90.5453 30.5094 90.8707 30.1562C91.1399 29.864 91.4485 29.6054 91.7468 29.3464C91.9895 29.1356 91.5061 29.9376 91.3492 30.2154C90.9876 30.8558 90.4279 31.3836 90.0957 32.0325C89.8919 32.4308 90.0186 32.17 90.1429 31.9272C90.3058 31.609 90.3817 31.3662 90.6281 31.0911C90.8394 30.8551 91.1807 30.0072 91.1807 30.3208C91.1807 30.6159 90.5596 31.1589 90.3855 31.361C89.7459 32.1038 89.2219 32.9332 88.5862 33.6785C88.2977 34.0167 88.1061 34.664 88.2965 33.9945C88.4208 33.557 88.6516 33.1619 88.876 32.7633C89.357 31.9089 90.4932 30.684 91.4502 30.3603C91.7489 30.2593 90.7322 31.3952 90.6146 31.5388C89.8491 32.4736 89.0755 33.3372 88.2021 34.1788C87.9175 34.4531 87.6211 34.7078 87.3126 34.9557C87.2237 35.0271 87.043 35.2788 87.043 35.1664C87.043 34.8184 87.4699 34.2285 87.6563 33.9484C87.8666 33.6323 88.2062 33.2948 88.566 33.1386C88.7632 33.053 88.6873 33.6615 88.6873 33.7641C88.6873 34.2548 87.9682 35.5397 88.3234 35.1927C88.7105 34.8146 88.959 34.2689 89.3612 33.876C89.8263 33.4216 90.3811 33.0639 90.8437 32.6119C90.8932 32.5636 91.3138 32.062 91.2076 32.4539C91.0531 33.0243 90.5217 33.3182 90.0823 33.6521C89.7889 33.875 89.2071 34.0982 89.0243 34.4158C89.0187 34.4255 89.4737 33.6727 89.6644 33.4678C89.8501 33.2683 91.8687 31.3913 92.0567 31.598C92.353 31.9236 90.8074 33.4312 90.6281 33.6785C90.2169 34.2456 91.1316 32.3353 91.6255 31.835C92.4961 30.953 92.0873 31.7556 91.6928 32.3749C91.4008 32.8335 90.3805 34.3955 91.0594 32.9806C91.3887 32.2942 91.8565 31.7511 92.3937 31.2162C92.5789 31.0317 93.3378 30.2598 92.8587 30.9989C92.4872 31.5719 92.1268 32.1518 91.7131 32.6975C91.6202 32.82 91.0524 33.7733 91.1403 33.3229C91.2181 32.9236 92.6212 30.5941 92.6632 30.6763C92.9444 31.2257 91.2836 32.9544 90.8774 33.2769C90.4297 33.6323 91.1529 32.2516 91.2346 32.072C91.521 31.4425 91.9054 30.88 92.2589 30.2879C92.5223 29.8468 91.9516 31.2728 91.6928 31.7165C91.4145 32.1939 90.8309 32.6563 90.6416 33.1649C90.5853 33.3161 90.9303 32.4615 91.1807 32.2169C92.023 31.394 91.4557 32.3119 91.0863 32.7567C90.6951 33.2279 90.3027 33.7658 89.7857 34.113C89.2201 34.4929 89.4806 34.134 89.7521 33.6653C90.401 32.5448 91.4986 31.7593 92.5622 31.045C93.3389 30.5232 92.6902 31.3702 92.6902 31.7363C92.6902 32.1456 92.9495 30.1225 92.9328 30.5315C92.9142 30.9864 91.8275 32.5553 92.1376 31.5453C92.2782 31.0876 92.6048 30.5691 92.8721 30.1628C93.1164 29.7915 92.7914 30.8281 92.6902 30.9791C92.2685 31.6086 91.7326 32.54 91.1133 32.9938" stroke="black" stroke-width="0.3" stroke-linecap="round"/>
    <path d="M90.6281 34.2973C90.6281 33.3129 91.5057 32.5355 91.9624 31.6902C92.0505 31.5272 92.4476 30.6841 92.4476 30.7421C92.4476 31.0961 92.4274 31.3787 92.2994 31.7165C92.1789 32.0344 91.6938 32.8081 91.7198 32.0721C91.742 31.4428 92.2321 30.9066 92.5689 30.413C92.9834 29.8056 92.7723 30.4772 92.6633 30.8607C92.506 31.4136 92.0008 31.8956 91.7198 32.4012C91.2407 33.2635 90.6064 33.5617 89.9003 34.1788C89.7168 34.3392 89.3972 34.511 89.4151 34.1788C89.4433 33.6554 89.9905 33.0892 90.2642 32.6646C90.4833 32.3247 90.3419 32.5715 90.1833 32.7633C89.9083 33.0961 89.5193 33.415 89.1725 33.6785C88.8868 33.8956 88.2923 34.6038 88.5391 34.034C88.7105 33.6381 89.1589 33.127 89.5364 32.9016C90.1176 32.5546 89.4656 33.537 89.2938 33.7048C89.0941 33.8999 87.9697 35.0881 88.1482 34.6397C88.4507 33.8797 89.0062 33.2747 89.5903 32.7041C89.8466 32.4537 90.2012 32.2552 90.1362 32.7633C90.0745 33.2454 89.1937 34.2141 88.7614 34.4488C88.1537 34.7786 89.3424 33.2096 89.7184 32.6382C89.924 32.3258 90.1429 31.9565 90.1429 32.5263C90.1429 32.8357 89.0818 34.2656 88.7817 34.0142C88.4787 33.7606 89.5445 32.7336 89.651 32.4737C89.7868 32.1419 89.6611 33.2561 89.4151 33.5205C88.9712 33.9975 89.8397 32.4999 89.961 32.2893C90.2793 31.7363 90.3979 31.7417 90.2642 32.3947C90.2102 32.6586 89.504 33.8813 89.7251 33.1715C89.801 32.9278 90.2158 31.7867 90.271 32.1642C90.306 32.404 90.4457 32.5935 90.3586 32.8489C90.3342 32.9202 90.0597 33.2762 90.0284 33.0925C89.9675 32.7359 90.3855 31.7039 90.3855 32.0655C90.3855 32.3136 90.2642 33.2029 90.2642 32.5197" stroke="black" stroke-width="0.3" stroke-linecap="round"/>
    <path d="M90.3855 32.7567C90.3855 32.6435 90.195 33.1169 90.089 33.211C89.7645 33.4992 89.9003 32.6811 89.9003 32.5329C89.9003 32.1727 90.2642 31.0848 90.2642 31.124C90.2642 31.5474 89.7797 32.1072 89.5432 32.4539C89.3237 32.7755 89.8801 31.7421 90.1429 31.4532C90.5935 30.958 90.4067 32.0077 90.3788 32.3486C90.3455 32.7544 90.1194 32.9116 89.9273 33.2308C89.876 33.3159 90.1986 32.6452 90.2642 32.4934C90.3276 32.3468 90.9548 31.2498 90.9853 31.4137C91.088 31.9659 90.3557 33.573 90.5136 33.0333C90.6914 32.4253 91.0426 31.8943 91.329 31.3347C91.566 30.8715 91.0736 32.4006 90.6888 32.7567C89.7101 33.6626 90.1768 32.6437 90.5068 31.9799C90.6882 31.615 90.9052 31.3201 90.8707 31.9272C90.8415 32.4409 90.2798 32.7361 90.9853 31.8745C91.5407 31.1962 91.9702 31.0718 91.3559 32.0194C90.8819 32.7506 91.0133 32.2377 91.3626 31.868C91.4059 31.8222 92.3224 30.8483 92.1983 31.3939C92.1169 31.7515 91.032 32.2737 91.1672 31.993C91.3676 31.577 91.8043 30.981 92.2589 30.8541C92.4108 30.8117 92.2851 30.9411 92.205 31.0977C91.9504 31.5952 91.5716 31.8877 91.0864 32.1642C91.0474 32.1864 90.3569 32.6106 90.4125 32.4341C90.5194 32.0948 90.8695 31.6135 91.1133 31.3413C91.4442 30.9718 91.9273 30.6386 92.4476 30.6236C92.526 30.6214 93.0199 30.5451 93.0406 30.5907C93.163 30.8598 92.8759 31.2294 92.7509 31.4466C92.2643 32.2916 92.4467 31.6347 92.6902 31.0713C92.8403 30.7241 93.8251 29.3034 93.418 30.4525C93.3197 30.7299 92.3201 32.2202 92.7037 31.203C92.882 30.7302 93.1543 30.3017 93.5123 29.9389C93.5958 29.8544 93.985 29.4054 93.8493 29.7809C93.7796 29.9738 92.6716 31.8187 92.825 31.0318C92.9677 30.2996 93.8705 29.3756 94.4423 28.9185C94.6049 28.7885 94.8139 28.7273 94.6714 29.0172C94.387 29.5961 93.9878 30.0843 93.5663 30.571C92.9268 31.3093 93.1853 30.7738 93.4113 30.222C93.5448 29.8959 93.0657 30.8493 92.8115 31.0977C92.5346 31.3682 92.4189 31.7323 92.205 32.0457" stroke="black" stroke-width="0.3" stroke-linecap="round"/>
    <path d="M89.2938 35.3639C88.9787 35.8811 88.6518 36.3741 88.2628 36.8386C88.0941 37.04 87.9489 37.4825 87.7169 37.5892C87.3332 37.7656 88.6344 35.8442 88.3908 36.3646C88.1192 36.9451 87.7566 37.4336 87.4204 37.971C87.2654 38.2189 87.0459 38.8081 87.353 38.208C87.477 37.9658 87.5956 37.7214 87.5956 37.4509C87.5956 37.2438 87.3115 37.787 87.1104 37.8525" stroke="black" stroke-width="0.3" stroke-linecap="round"/>
    <path d="M6 15.5L8.5 10L9.5 16.5L11 10L13 7.5L13.5 20.5L15 7.5L16.5 5.5L17.5 19L18.5 21.5L20.5 3.5L22 4.5L22.5 26.5L26 1L27 26.5L30 2L31 25.5L34.5 2L35.5 24.5L38 4.5L40 22.5L42.5 8.5L44.5 18.5L48 11.5L49.5 18.5L52 12L53 14.5L56 10.5L57.5 19.5L60.5 8.5L61.5 22.5L64.5 5.5L66 25.5L69 3L70.5 28.5L73.5 1L74.5 28.5L77.5 2L79 27L82.5 4.5L83.5 24.5L87.5 7V22.5L91 10.5L93 18.5L95.5 14.5L97 19" stroke="black"/>
    <path d="M36.6603 9.92045L35.7569 10.1761C35.7001 10.0256 35.6163 9.87926 35.5055 9.73722C35.3975 9.59233 35.2498 9.47301 35.0623 9.37926C34.8748 9.28551 34.6348 9.23864 34.3422 9.23864C33.9416 9.23864 33.6078 9.33097 33.3407 9.51562C33.0765 9.69744 32.9444 9.92898 32.9444 10.2102C32.9444 10.4602 33.0353 10.6577 33.2172 10.8026C33.399 10.9474 33.6831 11.0682 34.0694 11.1648L35.041 11.4034C35.6262 11.5455 36.0623 11.7628 36.3493 12.0554C36.6362 12.3452 36.7797 12.7187 36.7797 13.1761C36.7797 13.5511 36.6717 13.8864 36.4558 14.1818C36.2427 14.4773 35.9444 14.7102 35.5609 14.8807C35.1774 15.0511 34.7314 15.1364 34.2228 15.1364C33.5552 15.1364 33.0027 14.9915 32.5652 14.7017C32.1277 14.4119 31.8507 13.9886 31.7342 13.4318L32.6887 13.1932C32.7797 13.5455 32.9515 13.8097 33.2044 13.9858C33.46 14.1619 33.7939 14.25 34.2058 14.25C34.6745 14.25 35.0467 14.1506 35.3223 13.9517C35.6007 13.75 35.7399 13.5085 35.7399 13.2273C35.7399 13 35.6603 12.8097 35.5012 12.6562C35.3422 12.5 35.0978 12.3835 34.7683 12.3068L33.6774 12.0511C33.0779 11.9091 32.6376 11.6889 32.3564 11.3906C32.0779 11.0895 31.9387 10.7131 31.9387 10.2614C31.9387 9.89205 32.0424 9.56534 32.2498 9.28125C32.46 8.99716 32.7456 8.77415 33.1064 8.61222C33.47 8.45028 33.8819 8.36932 34.3422 8.36932C34.9899 8.36932 35.4984 8.51136 35.8677 8.79545C36.2399 9.07955 36.5041 9.45455 36.6603 9.92045ZM39.2992 11.0625V15H38.2935V6.27273H39.2992V9.47727H39.3844C39.5378 9.1392 39.7679 8.87074 40.0748 8.67188C40.3844 8.47017 40.7963 8.36932 41.3105 8.36932C41.7566 8.36932 42.1472 8.45881 42.4824 8.63778C42.8176 8.81392 43.0776 9.08523 43.2623 9.4517C43.4498 9.81534 43.5435 10.2784 43.5435 10.8409V15H42.5378V10.9091C42.5378 10.3892 42.4029 9.98722 42.133 9.70312C41.8659 9.41619 41.4952 9.27273 41.0208 9.27273C40.6912 9.27273 40.3958 9.34233 40.1344 9.48153C39.8759 9.62074 39.6713 9.82386 39.5208 10.0909C39.373 10.358 39.2992 10.6818 39.2992 11.0625ZM47.3095 15.1534C46.8947 15.1534 46.5183 15.0753 46.1802 14.919C45.8422 14.7599 45.5737 14.5312 45.3748 14.233C45.176 13.9318 45.0765 13.5682 45.0765 13.142C45.0765 12.767 45.1504 12.4631 45.2981 12.2301C45.4458 11.9943 45.6433 11.8097 45.8904 11.6761C46.1376 11.5426 46.4103 11.4432 46.7086 11.3778C47.0098 11.3097 47.3123 11.2557 47.6163 11.2159C48.014 11.1648 48.3365 11.1264 48.5836 11.1009C48.8336 11.0724 49.0154 11.0256 49.1291 10.9602C49.2456 10.8949 49.3038 10.7812 49.3038 10.6193V10.5852C49.3038 10.1648 49.1887 9.83807 48.9586 9.60511C48.7314 9.37216 48.3862 9.25568 47.9231 9.25568C47.443 9.25568 47.0666 9.3608 46.7939 9.57102C46.5211 9.78125 46.3294 10.0057 46.2186 10.2443L45.264 9.90341C45.4345 9.50568 45.6618 9.19602 45.9458 8.97443C46.2328 8.75 46.5453 8.59375 46.8833 8.50568C47.2243 8.41477 47.5595 8.36932 47.889 8.36932C48.0993 8.36932 48.3407 8.39489 48.6135 8.44602C48.889 8.49432 49.1547 8.59517 49.4103 8.74858C49.6689 8.90199 49.8833 9.13352 50.0538 9.44318C50.2243 9.75284 50.3095 10.1676 50.3095 10.6875V15H49.3038V14.1136H49.2527C49.1845 14.2557 49.0708 14.4077 48.9118 14.5696C48.7527 14.7315 48.541 14.8693 48.2768 14.983C48.0126 15.0966 47.6902 15.1534 47.3095 15.1534ZM47.4629 14.25C47.8606 14.25 48.1958 14.1719 48.4686 14.0156C48.7441 13.8594 48.9515 13.6577 49.0907 13.4105C49.2328 13.1634 49.3038 12.9034 49.3038 12.6307V11.7102C49.2612 11.7614 49.1674 11.8082 49.0225 11.8509C48.8805 11.8906 48.7157 11.9261 48.5282 11.9574C48.3436 11.9858 48.1632 12.0114 47.987 12.0341C47.8137 12.054 47.6731 12.071 47.5652 12.0852C47.3038 12.1193 47.0595 12.1747 46.8322 12.2514C46.6078 12.3253 46.426 12.4375 46.2868 12.5881C46.1504 12.7358 46.0822 12.9375 46.0822 13.1932C46.0822 13.5426 46.2115 13.8068 46.47 13.9858C46.7314 14.1619 47.0623 14.25 47.4629 14.25ZM52.1451 17.4545V8.45455H53.1167V9.49432H53.236C53.3098 9.38068 53.4121 9.2358 53.5428 9.05966C53.6763 8.88068 53.8667 8.72159 54.1138 8.58239C54.3638 8.44034 54.7019 8.36932 55.128 8.36932C55.6792 8.36932 56.165 8.5071 56.5854 8.78267C57.0059 9.05824 57.334 9.44886 57.5698 9.95455C57.8056 10.4602 57.9235 11.0568 57.9235 11.7443C57.9235 12.4375 57.8056 13.0384 57.5698 13.5469C57.334 14.0526 57.0073 14.4446 56.5897 14.723C56.1721 14.9986 55.6905 15.1364 55.1451 15.1364C54.7246 15.1364 54.388 15.0668 54.1351 14.9276C53.8823 14.7855 53.6877 14.625 53.5513 14.446C53.415 14.2642 53.3098 14.1136 53.236 13.9943H53.1507V17.4545H52.1451ZM53.1337 11.7273C53.1337 12.2216 53.2061 12.6577 53.351 13.0355C53.4959 13.4105 53.7076 13.7045 53.986 13.9176C54.2644 14.1278 54.6053 14.233 55.0087 14.233C55.4292 14.233 55.78 14.1222 56.0613 13.9006C56.3453 13.6761 56.5584 13.375 56.7005 12.9972C56.8453 12.6165 56.9178 12.1932 56.9178 11.7273C56.9178 11.267 56.8468 10.8523 56.7047 10.483C56.5655 10.1108 56.3539 9.81676 56.0698 9.60085C55.7885 9.3821 55.4348 9.27273 55.0087 9.27273C54.5996 9.27273 54.2559 9.37642 53.9775 9.58381C53.699 9.78835 53.4888 10.0753 53.3468 10.4446C53.2047 10.8111 53.1337 11.2386 53.1337 11.7273ZM62.2019 15.1364C61.5712 15.1364 61.0272 14.9972 60.5698 14.7188C60.1152 14.4375 59.7644 14.0455 59.5172 13.5426C59.2729 13.0369 59.1507 12.4489 59.1507 11.7784C59.1507 11.108 59.2729 10.517 59.5172 10.0057C59.7644 9.49148 60.1081 9.09091 60.5485 8.80398C60.9917 8.5142 61.5087 8.36932 62.0996 8.36932C62.4405 8.36932 62.7772 8.42614 63.1096 8.53977C63.4419 8.65341 63.7445 8.83807 64.0172 9.09375C64.29 9.34659 64.5073 9.68182 64.6692 10.0994C64.8311 10.517 64.9121 11.0312 64.9121 11.642V12.0682H59.8667V11.1989H63.8894C63.8894 10.8295 63.8155 10.5 63.6678 10.2102C63.5229 9.92045 63.3155 9.69176 63.0456 9.52415C62.7786 9.35653 62.4632 9.27273 62.0996 9.27273C61.699 9.27273 61.3525 9.37216 61.0598 9.57102C60.7701 9.76705 60.5471 10.0227 60.3908 10.3381C60.2346 10.6534 60.1564 10.9915 60.1564 11.3523V11.9318C60.1564 12.4261 60.2417 12.8452 60.4121 13.1889C60.5854 13.5298 60.8255 13.7898 61.1323 13.9688C61.4391 14.1449 61.7956 14.233 62.2019 14.233C62.4661 14.233 62.7047 14.196 62.9178 14.1222C63.1337 14.0455 63.3198 13.9318 63.476 13.7812C63.6323 13.6278 63.753 13.4375 63.8382 13.2102L64.8098 13.483C64.7076 13.8125 64.5357 14.1023 64.2942 14.3523C64.0527 14.5994 63.7544 14.7926 63.3993 14.9318C63.0442 15.0682 62.6451 15.1364 62.2019 15.1364ZM47.8374 30.1364C47.2464 30.1364 46.728 29.9957 46.282 29.7145C45.8388 29.4332 45.4922 29.0398 45.2422 28.5341C44.995 28.0284 44.8714 27.4375 44.8714 26.7614C44.8714 26.0795 44.995 25.4844 45.2422 24.9759C45.4922 24.4673 45.8388 24.0724 46.282 23.7912C46.728 23.5099 47.2464 23.3693 47.8374 23.3693C48.4283 23.3693 48.9453 23.5099 49.3885 23.7912C49.8345 24.0724 50.1811 24.4673 50.4283 24.9759C50.6783 25.4844 50.8033 26.0795 50.8033 26.7614C50.8033 27.4375 50.6783 28.0284 50.4283 28.5341C50.1811 29.0398 49.8345 29.4332 49.3885 29.7145C48.9453 29.9957 48.4283 30.1364 47.8374 30.1364ZM47.8374 29.233C48.2862 29.233 48.6555 29.1179 48.9453 28.8878C49.2351 28.6577 49.4496 28.3551 49.5888 27.9801C49.728 27.6051 49.7976 27.1989 49.7976 26.7614C49.7976 26.3239 49.728 25.9162 49.5888 25.5384C49.4496 25.1605 49.2351 24.8551 48.9453 24.6222C48.6555 24.3892 48.2862 24.2727 47.8374 24.2727C47.3885 24.2727 47.0192 24.3892 46.7294 24.6222C46.4396 24.8551 46.2251 25.1605 46.0859 25.5384C45.9467 25.9162 45.8771 26.3239 45.8771 26.7614C45.8771 27.1989 45.9467 27.6051 46.0859 27.9801C46.2251 28.3551 46.4396 28.6577 46.7294 28.8878C47.0192 29.1179 47.3885 29.233 47.8374 29.233ZM55.2532 23.4545V24.3068H51.7248V23.4545H55.2532ZM52.7816 30V22.5511C52.7816 22.1761 52.8697 21.8636 53.0458 21.6136C53.2219 21.3636 53.4506 21.1761 53.7319 21.0511C54.0131 20.9261 54.31 20.8636 54.6225 20.8636C54.8697 20.8636 55.0714 20.8835 55.2276 20.9233C55.3839 20.9631 55.5004 21 55.5771 21.0341L55.2873 21.9034C55.2362 21.8864 55.1651 21.8651 55.0742 21.8395C54.9862 21.8139 54.8697 21.8011 54.7248 21.8011C54.3924 21.8011 54.1523 21.8849 54.0046 22.0526C53.8597 22.2202 53.7873 22.4659 53.7873 22.7898V30H52.7816ZM33.4691 41.0625V45H32.4634V36.2727H33.4691V39.4773H33.5543C33.7077 39.1392 33.9379 38.8707 34.2447 38.6719C34.5543 38.4702 34.9663 38.3693 35.4805 38.3693C35.9265 38.3693 36.3171 38.4588 36.6523 38.6378C36.9876 38.8139 37.2475 39.0852 37.4322 39.4517C37.6197 39.8153 37.7134 40.2784 37.7134 40.8409V45H36.7077V40.9091C36.7077 40.3892 36.5728 39.9872 36.3029 39.7031C36.0359 39.4162 35.6651 39.2727 35.1907 39.2727C34.8612 39.2727 34.5657 39.3423 34.3043 39.4815C34.0458 39.6207 33.8413 39.8239 33.6907 40.0909C33.543 40.358 33.4691 40.6818 33.4691 41.0625ZM41.4794 45.1534C41.0646 45.1534 40.6882 45.0753 40.3501 44.919C40.0121 44.7599 39.7436 44.5312 39.5447 44.233C39.3459 43.9318 39.2464 43.5682 39.2464 43.142C39.2464 42.767 39.3203 42.4631 39.468 42.2301C39.6158 41.9943 39.8132 41.8097 40.0604 41.6761C40.3075 41.5426 40.5803 41.4432 40.8786 41.3778C41.1797 41.3097 41.4822 41.2557 41.7862 41.2159C42.1839 41.1648 42.5064 41.1264 42.7536 41.1009C43.0036 41.0724 43.1854 41.0256 43.299 40.9602C43.4155 40.8949 43.4737 40.7812 43.4737 40.6193V40.5852C43.4737 40.1648 43.3587 39.8381 43.1286 39.6051C42.9013 39.3722 42.5561 39.2557 42.093 39.2557C41.6129 39.2557 41.2365 39.3608 40.9638 39.571C40.6911 39.7812 40.4993 40.0057 40.3885 40.2443L39.4339 39.9034C39.6044 39.5057 39.8317 39.196 40.1158 38.9744C40.4027 38.75 40.7152 38.5937 41.0533 38.5057C41.3942 38.4148 41.7294 38.3693 42.0589 38.3693C42.2692 38.3693 42.5107 38.3949 42.7834 38.446C43.0589 38.4943 43.3246 38.5952 43.5803 38.7486C43.8388 38.902 44.0533 39.1335 44.2237 39.4432C44.3942 39.7528 44.4794 40.1676 44.4794 40.6875V45H43.4737V44.1136H43.4226C43.3544 44.2557 43.2408 44.4077 43.0817 44.5696C42.9226 44.7315 42.7109 44.8693 42.4467 44.983C42.1825 45.0966 41.8601 45.1534 41.4794 45.1534ZM41.6328 44.25C42.0305 44.25 42.3658 44.1719 42.6385 44.0156C42.9141 43.8594 43.1214 43.6577 43.2607 43.4105C43.4027 43.1634 43.4737 42.9034 43.4737 42.6307V41.7102C43.4311 41.7614 43.3374 41.8082 43.1925 41.8509C43.0504 41.8906 42.8857 41.9261 42.6982 41.9574C42.5135 41.9858 42.3331 42.0114 42.157 42.0341C41.9837 42.054 41.843 42.071 41.7351 42.0852C41.4737 42.1193 41.2294 42.1747 41.0021 42.2514C40.7777 42.3253 40.5959 42.4375 40.4567 42.5881C40.3203 42.7358 40.2521 42.9375 40.2521 43.1932C40.2521 43.5426 40.3814 43.8068 40.6399 43.9858C40.9013 44.1619 41.2322 44.25 41.6328 44.25ZM49.1616 38.4545V39.3068H45.7695V38.4545H49.1616ZM46.7582 36.8864H47.7638V43.125C47.7638 43.4091 47.805 43.6222 47.8874 43.7642C47.9727 43.9034 48.0806 43.9972 48.2113 44.0455C48.3448 44.0909 48.4854 44.1136 48.6332 44.1136C48.744 44.1136 48.8349 44.108 48.9059 44.0966C48.9769 44.0824 49.0337 44.071 49.0763 44.0625L49.2809 44.9659C49.2127 44.9915 49.1175 45.017 48.9954 45.0426C48.8732 45.071 48.7184 45.0852 48.5309 45.0852C48.2468 45.0852 47.9684 45.0241 47.6957 44.902C47.4258 44.7798 47.2013 44.5938 47.0224 44.3438C46.8462 44.0938 46.7582 43.7784 46.7582 43.3977V36.8864ZM50.6744 45V38.4545H51.646V39.4432H51.7141C51.8335 39.1193 52.0494 38.8565 52.3619 38.6548C52.6744 38.4531 53.0266 38.3523 53.4187 38.3523C53.4925 38.3523 53.5849 38.3537 53.6957 38.3565C53.8065 38.3594 53.8903 38.3636 53.9471 38.3693V39.392C53.913 39.3835 53.8349 39.3707 53.7127 39.3537C53.5934 39.3338 53.467 39.3239 53.3335 39.3239C53.0153 39.3239 52.7312 39.3906 52.4812 39.5241C52.234 39.6548 52.038 39.8366 51.8931 40.0696C51.7511 40.2997 51.68 40.5625 51.68 40.858V45H50.6744ZM57.6843 45.1364C57.0536 45.1364 56.5096 44.9972 56.0522 44.7188C55.5977 44.4375 55.2468 44.0455 54.9996 43.5426C54.7553 43.0369 54.6332 42.4489 54.6332 41.7784C54.6332 41.108 54.7553 40.517 54.9996 40.0057C55.2468 39.4915 55.5906 39.0909 56.0309 38.804C56.4741 38.5142 56.9911 38.3693 57.582 38.3693C57.9229 38.3693 58.2596 38.4261 58.592 38.5398C58.9244 38.6534 59.2269 38.8381 59.4996 39.0938C59.7724 39.3466 59.9897 39.6818 60.1516 40.0994C60.3136 40.517 60.3945 41.0312 60.3945 41.642V42.0682H55.3491V41.1989H59.3718C59.3718 40.8295 59.2979 40.5 59.1502 40.2102C59.0053 39.9205 58.7979 39.6918 58.5281 39.5241C58.261 39.3565 57.9457 39.2727 57.582 39.2727C57.1815 39.2727 56.8349 39.3722 56.5423 39.571C56.2525 39.767 56.0295 40.0227 55.8732 40.3381C55.717 40.6534 55.6388 40.9915 55.6388 41.3523V41.9318C55.6388 42.4261 55.7241 42.8452 55.8945 43.1889C56.0678 43.5298 56.3079 43.7898 56.6147 43.9688C56.9215 44.1449 57.2781 44.233 57.6843 44.233C57.9485 44.233 58.1871 44.196 58.4002 44.1222C58.6161 44.0455 58.8022 43.9318 58.9585 43.7812C59.1147 43.6278 59.2354 43.4375 59.3207 43.2102L60.2923 43.483C60.19 43.8125 60.0181 44.1023 59.7766 44.3523C59.5352 44.5994 59.2369 44.7926 58.8817 44.9318C58.5266 45.0682 58.1275 45.1364 57.6843 45.1364ZM64.396 45.1364C63.8505 45.1364 63.369 44.9986 62.9513 44.723C62.5337 44.4446 62.207 44.0526 61.9712 43.5469C61.7354 43.0384 61.6175 42.4375 61.6175 41.7443C61.6175 41.0568 61.7354 40.4602 61.9712 39.9545C62.207 39.4489 62.5352 39.0582 62.9556 38.7827C63.3761 38.5071 63.8619 38.3693 64.413 38.3693C64.8391 38.3693 65.1758 38.4403 65.4229 38.5824C65.6729 38.7216 65.8633 38.8807 65.994 39.0597C66.1275 39.2358 66.2312 39.3807 66.305 39.4943H66.3903V36.2727H67.396V45H66.4244V43.9943H66.305C66.2312 44.1136 66.1261 44.2642 65.9897 44.446C65.8533 44.625 65.6587 44.7855 65.4059 44.9276C65.1531 45.0668 64.8164 45.1364 64.396 45.1364ZM64.5323 44.233C64.9357 44.233 65.2766 44.1278 65.555 43.9176C65.8335 43.7045 66.0451 43.4105 66.19 43.0355C66.3349 42.6577 66.4073 42.2216 66.4073 41.7273C66.4073 41.2386 66.3363 40.8111 66.1942 40.4446C66.0522 40.0753 65.842 39.7884 65.5636 39.5838C65.2852 39.3764 64.9414 39.2727 64.5323 39.2727C64.1062 39.2727 63.7511 39.3821 63.467 39.6009C63.1857 39.8168 62.9741 40.1108 62.832 40.483C62.6928 40.8523 62.6232 41.267 62.6232 41.7273C62.6232 42.1932 62.6942 42.6165 62.8363 42.9972C62.9812 43.375 63.1942 43.6761 63.4755 43.9006C63.7596 44.1222 64.1119 44.233 64.5323 44.233Z" fill="white"/>
</svg>
